<?xml version="1.0" encoding="utf-8"?>
<!-- Svg Vector Icons : http://www.onlinewebfonts.com/icon -->
<!DOCTYPE svg PUBLIC "-//W3C//DTD SVG 1.1//EN" "http://www.w3.org/Graphics/SVG/1.1/DTD/svg11.dtd">
<svg version="1.1" xmlns="http://www.w3.org/2000/svg" xmlns:xlink="http://www.w3.org/1999/xlink" x="0px" y="0px" viewBox="0 0 1000 1000" enable-background="new 0 0 1000 1000" xml:space="preserve">
<metadata> Svg Vector Icons : http://www.onlinewebfonts.com/icon </metadata>
<g><path d="M382.5,488.6l-184,224c0,0,70.9,51.3,305.3,51.3c234.5,0,297.7-51.3,297.7-51.3L646.8,524.7C646.8,524.7,454.1,536,382.5,488.6z"/><path d="M500,206.8l-203.8,261c0,0,96.9,32.2,206.4,32.2c109.5,0,201.3-32.2,201.3-32.2L500,206.8z"/><g><path d="M293.6,745.4L123.1,932.4c0,0,96,57.6,381.7,57.6c285.7,0,372.1-57.6,372.1-57.6L738.1,780.7C738.1,780.8,465.1,839,293.6,745.4z"/></g><polygon points="500,10 530.6,86 612.3,91.6 549.4,144.1 569.4,223.6 500,180 430.6,223.6 450.6,144.1 387.7,91.6 469.5,86 "/></g>
</svg>